<svg width="42" height="42" viewBox="0 0 42 42" fill="none" xmlns="http://www.w3.org/2000/svg">
<path d="M21.0735 41.384C7.40075 41.384 0 32.851 0 21.8348C0 10.0625 8.3335 0.616013 23.233 0.616013C34.1075 0.616013 42 7.68251 42 17.4178C42 32.6638 23.9225 36.6888 24.829 27.9913C23.5865 29.9303 21.5845 32.1108 17.7363 32.1108C13.3333 32.1108 10.5962 28.8873 10.5962 23.6985C10.5962 15.9215 15.708 9.35026 21.7595 9.35026C24.6628 9.35026 26.6595 10.8833 27.4943 13.237L28.3062 10.381H32.3978C31.9708 11.837 28.336 25.3033 28.336 25.3033C27.202 29.9688 30.6985 30.051 33.7995 27.573C39.6252 23.058 39.9263 11.2508 32.053 6.32626C23.6162 1.26701 4.41175 4.39776 4.41175 21.539C4.41175 31.3583 11.3243 37.9558 21.6125 37.9558C27.6255 37.9558 31.311 36.3283 34.3788 34.5468L36.4385 37.5183C33.4443 39.2088 28.6317 41.384 21.0735 41.384ZM16.9715 16.3503C15.7202 18.6953 14.9117 21.7333 14.9117 24.0923C14.9117 30.4098 21.0752 30.45 24.1027 24.5105C25.3487 22.071 26.152 18.9613 26.152 16.5848C26.152 11.48 20.0358 10.5753 16.9715 16.3503V16.3503Z" fill="url(#paint0_linear)"/>
<defs>
<linearGradient id="paint0_linear" x1="42" y1="-12.6875" x2="3.65238e-06" y2="53.8125" gradientUnits="userSpaceOnUse">
<stop stop-color="#65DFC9"/>
<stop offset="1" stop-color="#6596F6"/>
</linearGradient>
</defs>
</svg>
