<svg width="42" height="42" viewBox="0 0 42 42" fill="none" xmlns="http://www.w3.org/2000/svg">
<path d="M21 3.5C30.6495 3.5 38.5 11.3505 38.5 21C38.5 30.6495 30.6495 38.5 21 38.5C11.3505 38.5 3.5 30.6495 3.5 21C3.5 11.3505 11.3505 3.5 21 3.5ZM21 0C9.40275 0 0 9.40275 0 21C0 32.5972 9.40275 42 21 42C32.5972 42 42 32.5972 42 21C42 9.40275 32.5972 0 21 0ZM21 10.5C15.2023 10.5 10.5 15.2005 10.5 21C10.5 25.6393 13.5083 29.575 17.682 30.9628C18.207 31.0608 18.375 30.7352 18.375 30.457V28.5023C15.4542 29.1375 14.8452 27.265 14.8452 27.265C14.3692 26.0522 13.6797 25.7285 13.6797 25.7285C12.7277 25.0757 13.7515 25.0897 13.7515 25.0897C14.8067 25.1632 15.3615 26.173 15.3615 26.173C16.2977 27.7778 17.8168 27.314 18.417 27.0462C18.5115 26.3672 18.7827 25.9052 19.0837 25.6427C16.751 25.3767 14.301 24.4755 14.301 20.454C14.301 19.3077 14.7105 18.3715 15.3825 17.6365C15.274 17.3688 14.9135 16.2995 15.484 14.854C15.484 14.854 16.366 14.5722 18.3715 15.9302C19.2098 15.6975 20.1075 15.582 21 15.5768C21.8925 15.5803 22.7903 15.6975 23.6303 15.9302C25.6358 14.5722 26.5143 14.854 26.5143 14.854C27.0865 16.2995 26.726 17.3688 26.6193 17.633C27.293 18.368 27.699 19.3042 27.699 20.4505C27.699 24.4842 25.242 25.3715 22.904 25.6305C23.282 25.956 23.625 26.5947 23.625 27.5747V30.4552C23.625 30.7352 23.793 31.0625 24.325 30.9592C28.4952 29.5715 31.5 25.6375 31.5 21C31.5 15.2005 26.7977 10.5 21 10.5V10.5Z" fill="url(#paint0_linear)"/>
<defs>
<linearGradient id="paint0_linear" x1="42" y1="-13.7055" x2="-1.81037" y2="53.6261" gradientUnits="userSpaceOnUse">
<stop stop-color="#65DFC9"/>
<stop offset="1" stop-color="#6596F6"/>
</linearGradient>
</defs>
</svg>
