<svg width="86" height="78" viewBox="0 0 86 78" fill="none" xmlns="http://www.w3.org/2000/svg">
<path d="M70.7093 25.5272C69.8171 25.2191 68.8927 24.9276 67.9408 24.6519C68.0973 24.0113 68.2409 23.3789 68.3685 22.7573C70.4642 12.5506 69.094 4.32801 64.4151 1.62078C59.9287 -0.975095 52.5915 1.73152 45.1812 8.20209C44.4686 8.8243 43.7541 9.48306 43.0398 10.1735C42.5639 9.71667 42.0887 9.27525 41.6148 8.85302C33.8486 1.93427 26.0643 -0.981392 21.39 1.73367C16.9079 4.33708 15.5805 12.0671 17.4669 21.7401C17.6491 22.6744 17.862 23.6285 18.1028 24.5986C17.0011 24.9124 15.9375 25.2469 14.9198 25.6028C5.81485 28.7879 0 33.7796 0 38.9574C0 44.3051 6.24225 49.6688 15.7258 52.9212C16.4742 53.1778 17.2508 53.4205 18.0511 53.6509C17.7913 54.7001 17.5653 55.7283 17.3757 56.7311C15.577 66.2362 16.9816 73.7836 21.4519 76.3706C26.0692 79.0422 33.8183 76.2961 41.364 69.678C41.9604 69.1549 42.559 68.6001 43.1586 68.0186C43.9358 68.7695 44.7117 69.4802 45.4836 70.1468C52.7925 76.4575 60.0112 79.0057 64.4773 76.4116C69.09 73.7323 70.5891 65.6246 68.6428 55.7602C68.4942 55.0068 68.3212 54.2372 68.127 53.4538C68.6712 53.2924 69.2054 53.1258 69.7263 52.9525C79.5854 49.675 86 44.3765 86 38.9574C86 33.7609 79.9976 28.7355 70.7093 25.5272ZM68.5709 49.4535C68.1006 49.6097 67.6181 49.7607 67.1264 49.9071C66.0381 46.4498 64.5691 42.7736 62.7715 38.9754C64.4869 35.2677 65.8991 31.6384 66.957 28.2036C67.8367 28.459 68.6906 28.7284 69.5134 29.0127C77.4717 31.7616 82.3261 35.8258 82.3261 38.9574C82.3261 42.2932 77.0835 46.6234 68.5709 49.4535ZM65.0388 56.4761C65.8994 60.838 66.0223 64.7816 65.4522 67.8646C64.94 70.6348 63.91 72.4817 62.6363 73.2214C59.9261 74.7955 54.1302 72.7494 47.8795 67.3525C47.163 66.7338 46.4412 66.0732 45.7171 65.3741C48.1404 62.7149 50.5622 59.6235 52.9259 56.1903C57.0834 55.8201 61.0113 55.2149 64.5733 54.3888C64.7487 55.0988 64.9045 55.7952 65.0388 56.4761ZM29.3193 72.9494C26.6714 73.8877 24.5624 73.9146 23.2876 73.177C20.5749 71.6072 19.4471 65.5473 20.9854 57.4185C21.1616 56.4876 21.3713 55.5313 21.613 54.5539C25.136 55.3355 29.0351 55.898 33.2025 56.237C35.5821 59.5965 38.0739 62.6845 40.585 65.3883C40.0364 65.9198 39.4899 66.4257 38.9465 66.9025C35.6098 69.8289 32.2661 71.9051 29.3193 72.9494ZM16.914 49.4331C12.7205 47.995 9.25744 46.1259 6.88365 44.0864C4.75065 42.2535 3.67374 40.4339 3.67374 38.9574C3.67374 35.8154 8.34249 31.8077 16.1292 29.0837C17.074 28.7532 18.063 28.4417 19.0894 28.1491C20.1655 31.6614 21.5772 35.3337 23.2808 39.0471C21.5552 42.8157 20.1234 46.5465 19.0367 50.1C18.305 49.889 17.5961 49.6669 16.914 49.4331ZM21.0724 21.0322C19.4562 12.7446 20.5296 6.49276 23.2306 4.92396C26.1077 3.25271 32.4699 5.63555 39.1753 11.6096C39.6039 11.9914 40.0343 12.391 40.4658 12.8045C37.9671 15.4965 35.4981 18.5613 33.1396 21.9011C29.0949 22.2772 25.2233 22.8814 21.6636 23.6906C21.4398 22.7873 21.2415 21.8998 21.0724 21.0322ZM58.1689 30.223C57.3179 28.7482 56.4443 27.3083 55.5537 25.9077C58.2976 26.2557 60.9266 26.7177 63.3955 27.2831C62.6543 29.6666 61.7304 32.1586 60.6429 34.7133C59.8629 33.2273 59.0378 31.729 58.1689 30.223ZM43.041 15.4389C44.7356 17.281 46.4326 19.3376 48.1018 21.569C46.4198 21.4893 44.7169 21.4478 43 21.4478C41.2993 21.4478 39.609 21.4884 37.9374 21.5667C39.6082 19.356 41.32 17.3022 43.041 15.4389ZM27.8163 30.2485C26.9662 31.7275 26.1564 33.2176 25.3886 34.7106C24.3187 32.1648 23.4035 29.6614 22.6558 27.2441C25.1095 26.6932 27.7261 26.2427 30.4526 25.9012C29.5494 27.3148 28.6686 28.7653 27.8163 30.2482V30.2485ZM30.5311 52.2766C27.7142 51.9612 25.0582 51.5339 22.6052 50.9982C23.3647 48.5378 24.3002 45.9809 25.3927 43.3803C26.1626 44.8721 26.9756 46.3629 27.8308 47.8451H27.831C28.7021 49.3551 29.6047 50.8342 30.5311 52.2766ZM43.1427 62.7358C41.4014 60.8507 39.6646 58.7656 37.9683 56.5226C39.615 56.5875 41.2938 56.6206 43 56.6206C44.7529 56.6206 46.4858 56.581 48.1914 56.5048C46.5167 58.7881 44.8258 60.8765 43.1427 62.7358ZM60.678 43.2477C61.8275 45.8765 62.7965 48.42 63.5658 50.8385C61.0723 51.4092 58.3801 51.8689 55.5436 52.2105C56.4363 50.791 57.3176 49.3263 58.1836 47.8197C59.0597 46.2955 59.8915 44.7689 60.678 43.2477ZM55.0012 45.9782C53.6569 48.3169 52.2767 50.5496 50.8756 52.657C48.3236 52.8401 45.6871 52.9344 43 52.9344C40.3237 52.9344 37.7205 52.851 35.2136 52.6877C33.756 50.5526 32.3459 48.3134 31.0101 45.9983H31.0104C29.6782 43.6895 28.452 41.3612 27.341 39.0459C28.4517 36.7253 29.6746 34.3943 30.9992 32.0897L30.9989 32.0901C32.327 29.7793 33.7248 27.551 35.1689 25.4292C37.7266 25.2353 40.3493 25.134 42.9998 25.134H43C45.6625 25.134 48.2886 25.236 50.8454 25.4317C52.2675 27.5379 53.6558 29.759 54.9891 32.0702C56.3376 34.4072 57.5763 36.7226 58.6966 38.9935C57.5797 41.3034 56.3437 43.6422 55.0012 45.9782ZM62.58 4.81429C65.4599 6.48062 66.5798 13.2009 64.7704 22.0133C64.655 22.5756 64.525 23.1484 64.3839 23.7288C60.8159 22.9028 56.9415 22.2881 52.8851 21.9063C50.522 18.5298 48.0732 15.4603 45.6152 12.8028C46.276 12.1649 46.936 11.5567 47.5931 10.9827C53.9422 5.4388 59.8763 3.24994 62.58 4.81429ZM43 31.2521C47.2412 31.2521 50.6795 34.7018 50.6795 38.9574C50.6795 43.2129 47.2412 46.6627 43 46.6627C38.7588 46.6627 35.3205 43.2129 35.3205 38.9574C35.3205 34.7018 38.7588 31.2521 43 31.2521Z" fill="#00D8FF"/>
</svg>
