<svg width="80" height="80" viewBox="0 0 80 80" fill="none" xmlns="http://www.w3.org/2000/svg">
<path d="M0 40V80H40H80V40V0H40H0V40Z" fill="#007ACC"/>
<path d="M17.691 40.2653L17.6656 43.5415H22.872H28.0783V58.3352L28.0783 73.1288H31.7608H35.4434V58.3352V43.5415H40.6497H45.8561V40.3288C45.8561 38.551 45.818 37.0653 45.7672 37.0272C45.7291 36.9764 39.3926 36.951 31.71 36.9637L17.7291 37.0018L17.691 40.2653Z" fill="white"/>
<path d="M64.5521 36.9089C66.5838 37.4168 68.133 38.3184 69.5553 39.7914C70.2918 40.5787 71.3838 42.0136 71.4727 42.3565C71.4981 42.4581 68.0187 44.7946 65.9108 46.1025C65.8346 46.1533 65.5299 45.8232 65.187 45.3152C64.1584 43.8168 63.0791 43.1692 61.4283 43.0549C59.0029 42.8898 57.441 44.1597 57.4537 46.2803C57.4537 46.9025 57.5426 47.2708 57.7965 47.7787C58.3299 48.8835 59.3203 49.5438 62.4314 50.8898C68.1584 53.3533 70.6092 54.9787 72.133 57.2898C73.8346 59.8676 74.2156 63.9819 73.06 67.0422C71.7902 70.3692 68.641 72.6295 64.2092 73.3787C62.8378 73.62 59.587 73.5819 58.114 73.3152C54.9013 72.7438 51.8537 71.1565 49.9743 69.074C49.2378 68.2613 47.8029 66.1406 47.8918 65.9882C47.9299 65.9374 48.26 65.7343 48.6283 65.5184C48.9838 65.3152 50.3299 64.5406 51.5997 63.8041L53.8981 62.4708L54.3807 63.1819C55.0537 64.2105 56.5267 65.62 57.4156 66.0898C59.968 67.4359 63.4727 67.2454 65.1997 65.6962C65.9362 65.0232 66.241 64.3247 66.241 63.2962C66.241 62.3692 66.1267 61.9628 65.6441 61.2644C65.0219 60.3755 63.7521 59.6263 60.1457 58.0644C56.0187 56.2867 54.241 55.1819 52.6156 53.4295C51.6759 52.4136 50.787 50.7882 50.4187 49.4295C50.114 48.2994 50.0378 45.4676 50.2791 44.3247C51.1299 40.3374 54.1394 37.5565 58.4822 36.7311C59.8918 36.4644 63.168 36.566 64.5521 36.9089Z" fill="white"/>
</svg>
